<svg viewBox="0 0 24 24" xmlns="http://www.w3.org/2000/svg" fill="none" aria-hidden="true">
  <path d="M23.51 12.24c0-.82-.07-1.62-.2-2.4H12v4.56h6.46c-.28 1.52-1.13 2.8-2.4 3.66v3.04h3.88c2.28-2.1 3.6-5.2 3.6-8.86Z" fill="#4285F4"/>
  <path d="M12 24c3.24 0 5.96-1.06 7.94-2.87l-3.88-3.04c-1.08.72-2.46 1.14-4.06 1.14-3.12 0-5.76-2.1-6.7-4.92H1.36v3.08C3.34 21.9 7.36 24 12 24Z" fill="#34A853"/>
  <path d="M5.3 14.31c-.24-.72-.38-1.5-.38-2.31 0-.81.14-1.59.38-2.31V6.61H1.36A11.99 11.99 0 0 0 0 12c0 1.96.46 3.82 1.36 5.39l3.94-3.08Z" fill="#FBBC05"/>
  <path d="M12 4.8c1.76 0 3.34.6 4.58 1.78l3.44-3.44C17.96 1.16 15.24 0 12 0 7.36 0 3.34 2.1 1.36 5.61l3.94 3.08C6.24 6.9 8.88 4.8 12 4.8Z" fill="#EA4335"/>
</svg>