<svg viewBox="0 0 24 24" xmlns="http://www.w3.org/2000/svg" fill="#c89c63" aria-hidden="true">
  <path d="M23.954 4.569c-.885.392-1.83.656-2.825.775 1.014-.608 1.794-1.574 2.163-2.724-.95.564-2.005.974-3.127 1.195-.897-.957-2.178-1.555-3.594-1.555-2.72 0-4.924 2.203-4.924 4.923 0 .386.043.762.127 1.124-4.09-.205-7.72-2.165-10.15-5.144-.424.724-.666 1.562-.666 2.457 0 1.695.863 3.189 2.176 4.068-.802-.025-1.558-.246-2.218-.616v.062c0 2.37 1.685 4.348 3.918 4.796-.41.111-.84.171-1.286.171-.314 0-.619-.03-.917-.086.62 1.934 2.422 3.339 4.556 3.377-1.67 1.31-3.778 2.091-6.067 2.091-.395 0-.786-.023-1.17-.068 2.166 1.388 4.742 2.197 7.513 2.197 9.017 0 13.965-7.467 13.965-13.965 0-.213-.005-.425-.014-.636.961-.695 1.8-1.562 2.46-2.549z"/>
</svg>