<svg viewBox="0 0 24 24" xmlns="http://www.w3.org/2000/svg" fill="#c89c63" aria-hidden="true">
  <path d="M23.953 4.57a10 10 0 002.856-3.915 9.964 9.964 0 01-2.866.822c1.021-.619 1.804-1.6 2.174-2.767a9.93 9.93 0 01-3.156 1.202 4.933 4.933 0 00-8.514 4.49 13.978 13.978 0 01-10.147-5.148c-.342.587-.535 1.27-.535 2.008 0 1.71.87 3.213 2.188 4.096a4.904 4.904 0 01-2.228-.616v.06a4.923 4.923 0 003.946 4.827 4.996 4.996 0 01-2.212.085 4.936 4.936 0 004.604 3.417a9.867 9.867 0 01-6.102 2.105c-.39 0-.779-.023-1.17-.067a13.995 13.995 0 007.557 2.209c9.053 0 13.998-7.496 13.998-13.985 0-.21 0-.42-.015-.63a9.935 9.935 0 002.437-2.544Z"/>
</svg>